<?xml version="1.0" encoding="utf-8"?>
<!-- Generator: Adobe Illustrator 26.0.1, SVG Export Plug-In . SVG Version: 6.00 Build 0)  -->
<svg version="1.1" id="Layer_1" xmlns="http://www.w3.org/2000/svg" xmlns:xlink="http://www.w3.org/1999/xlink" x="0px" y="0px"
	 viewBox="0 0 96 96" style="enable-background:new 0 0 96 96;" xml:space="preserve">
<style type="text/css">
	.st0{fill:url(#SVGID_1_);}
	.st1{opacity:5.000000e-02;enable-background:new    ;}
	.st2{opacity:7.000000e-02;enable-background:new    ;}
	.st3{fill:#FFFFFF;}
</style>
<linearGradient id="SVGID_1_" gradientUnits="userSpaceOnUse" x1="-124.5" y1="247.992" x2="-84.5" y2="247.992" gradientTransform="matrix(2 0 0 -2 257 543)">
	<stop  offset="0" style="stop-color:#4C4C4C"/>
	<stop  offset="1" style="stop-color:#343434"/>
</linearGradient>
<path class="st0" d="M48,8C25.9,8,8,25.9,8,48c0,17.8,11.6,32.8,27.6,38h24.7C76.4,80.8,88,65.8,88,48C88,25.9,70.1,8,48,8z"/>
<path class="st1" d="M60,84l0-11.6c0-1.9-0.4-3.7-1.3-5.4c11.3-2.3,16.8-8.9,16.8-20.4c0-4.5-1.3-8.5-4-11.8c0.2-0.6,0.3-1.3,0.4-2
	c0.4-2.7,0-4.5-0.4-6l-0.1-0.2c-0.4-1.6-0.8-2.7-0.8-2.8l-0.2-0.6l-0.2-0.6l-0.6-0.1L69,22.6c0,0-0.4,0-1,0c-0.8,0-2.1,0.1-3.3,0.5
	l-0.4,0.1c-1.5,0.5-2.9,1-4.8,2.1c-0.6,0.3-1.2,0.7-1.9,1.2c-3-0.8-6.3-1.1-9.7-1.1c-3.4,0-6.7,0.4-9.8,1.1
	c-0.7-0.4-1.3-0.8-1.9-1.2c-2-1.2-3.4-1.6-4.8-2.1l-0.4-0.1c-1.2-0.4-2.4-0.5-3.3-0.5c-0.6,0-1,0-1,0l-0.6,0.1l-0.6,0.1l-0.2,0.6
	l-0.2,0.6c0,0.1-0.5,1.2-0.8,2.8l-0.1,0.2c-0.3,1.4-0.8,3.2-0.4,6c0.1,0.7,0.2,1.4,0.5,2c-2.6,3.3-3.9,7.3-3.9,11.8
	c0,11.4,5.5,18.1,16.8,20.3c-0.4,0.8-0.7,1.6-0.9,2.4c-0.4,0.1-0.8,0.2-1.1,0.3c-0.5,0.1-1,0.1-1.5,0.1c-1.4,0-2.5-0.3-2.9-0.5
	c-0.6-0.4-1.7-1.5-2.8-3c-0.9-1.3-2.4-3.1-4-3.9c-1.4-0.6-2.9-1-4.1-1c-0.3,0-0.5,0-0.8,0.1c-1,0.2-1.9,0.7-2.4,1.6
	c-0.4,0.7-0.5,1.5-0.2,2.3c0.4,1.1,1.7,2,2.7,2.5c0.5,0.3,1.5,1.2,2.1,2.2c0.5,0.7,0.7,1.3,1,2c0.2,0.4,0.4,0.9,0.6,1.5
	c0.9,2,3.9,3.8,4.2,4c1.6,1,4.3,1.3,6.3,1.4l0.2,0h0c0.5,0,1.1,0,2-0.1V84c0,1.1-1.1,1.3-2.5,1.3l1.1,0.4C38.8,87.1,43.3,88,48,88
	s9.2-0.9,13.4-2.4l1.4-0.5C61.4,85.1,60,84.8,60,84z"/>
<path class="st2" d="M61.6,85.6C60.8,85.7,59,85.4,59,84V72.4c0-2.2-0.7-4.3-1.9-6.1c11.8-1.9,17.4-8.2,17.4-19.6
	c0-4.5-1.4-8.4-4.1-11.6c0.3-0.7,0.5-1.5,0.6-2.3c0.3-2.6,0-4.2-0.4-5.6l-0.1-0.2c-0.4-1.5-0.8-2.6-0.8-2.6l-0.2-0.6l-0.6-0.1
	c0,0-0.4,0-0.9,0c-0.8,0-1.9,0.1-2.9,0.4l-0.4,0.1c-1.4,0.5-2.8,0.9-4.6,2c-0.7,0.4-1.4,0.9-2.2,1.4c-3.1-0.8-6.4-1.2-9.9-1.2
	c-3.5,0-6.9,0.4-10,1.2c-0.8-0.5-1.5-1-2.2-1.4c-1.9-1.1-3.2-1.6-4.6-2L30.8,24c-1-0.4-2.2-0.4-2.9-0.4c-0.5,0-0.9,0-0.9,0l-0.6,0.1
	l-0.2,0.6c0,0-0.4,1.1-0.8,2.6l-0.1,0.2c-0.3,1.4-0.7,3-0.4,5.6c0.1,0.8,0.3,1.6,0.6,2.3c-2.7,3.2-4,7.1-4,11.6
	c0,11.4,5.5,17.7,17.4,19.6c-0.8,1.2-1.3,2.5-1.6,3.9c-0.7,0.3-1.3,0.4-1.8,0.5c-0.5,0.1-1.1,0.1-1.6,0.1c-1.4,0-2.7-0.3-3.4-0.7
	c-0.9-0.5-2.1-1.8-3.1-3.3c-0.7-1-2.1-2.8-3.6-3.5c-1.3-0.6-2.6-0.9-3.6-0.9c-0.2,0-0.4,0-0.6,0c-0.7,0.1-1.3,0.5-1.7,1.1
	c-0.3,0.4-0.3,1-0.1,1.4c0.4,0.9,1.7,1.7,2.2,2c0.7,0.4,1.8,1.5,2.5,2.6c0.5,0.8,0.7,1.4,1,2.1c0.2,0.4,0.4,0.9,0.6,1.4
	c0.7,1.4,2.7,2.9,3.8,3.6c1.5,0.9,4.3,1.2,5.8,1.2l0.2,0c0.6,0,1.6-0.1,3-0.3V84c0,1.6-2,1.6-2.5,1.6c-0.1,0,1,0.4,1,0.4
	c3.9,1.3,8.1,2,12.5,2s8.5-0.7,12.5-2C60.5,86,61.6,85.6,61.6,85.6z"/>
<path class="st3" d="M73.5,46.7c0-4.6-1.6-8.5-4.2-11.5c0.3-0.7,0.6-1.5,0.7-2.6c0.3-2.5-0.1-4-0.4-5.5s-0.8-2.5-0.8-2.5
	S67,24.4,65.4,25s-2.9,0.9-4.8,2.1c-0.9,0.5-1.8,1.1-2.5,1.6c-3.1-0.9-6.5-1.3-10-1.3c-3.6,0-7,0.4-10.1,1.3
	c-0.7-0.5-1.6-1.1-2.6-1.6c-1.9-1.2-3.3-1.6-4.8-2.1s-3.4-0.3-3.4-0.3s-0.4,1-0.8,2.5s-0.8,3-0.4,5.5c0.2,1.1,0.5,2,0.8,2.7
	c-2.6,3-4.2,6.8-4.2,11.4c0,12,6.5,17.4,18.2,18.9c-1.4,1.5-2.3,3.3-2.6,5.4c-0.8,0.3-1.7,0.7-2.5,0.8c-2.2,0.3-4.5,0-5.7-0.7
	s-2.5-2.2-3.5-3.6c-0.8-1.2-2.1-2.7-3.2-3.2c-1.5-0.7-2.9-0.9-3.7-0.8c-0.8,0.1-1.2,0.7-1,1.1c0.2,0.4,1,1,1.8,1.5s2.1,1.7,2.9,2.9
	c0.8,1.3,1,2.1,1.7,3.7c0.5,1.1,2.2,2.4,3.4,3.2c1,0.6,3.1,1,5.4,1.1c0.8,0,2.6-0.2,4.2-0.4V84c0,1.3-1.2,2.2-2.4,2
	c3.9,1.3,8,2,12.4,2c4.3,0,8.5-0.7,12.4-2c-1.2,0.2-2.4-0.8-2.4-2V72.4c0-2.7-1.1-5.1-2.7-6.8C66.9,64.1,73.5,58.8,73.5,46.7z
	 M22.5,65.5c-0.3-0.2-0.5-0.4-0.4-0.7s0.4-0.2,0.7-0.1c0.3,0.2,0.5,0.4,0.4,0.7S22.8,65.6,22.5,65.5z M24.9,67
	c-0.2,0.2-0.5,0.1-0.8-0.1s-0.4-0.6-0.2-0.8s0.5-0.1,0.8,0.1S25.1,66.8,24.9,67z M26.4,69.5c-0.2,0.1-0.5,0-0.8-0.3s-0.2-0.7,0-0.8
	s0.5,0,0.8,0.3C26.6,68.9,26.6,69.3,26.4,69.5z M28.6,71.3c-0.1,0.2-0.5,0.2-0.9,0s-0.5-0.6-0.4-0.8c0.1-0.2,0.5-0.2,0.9,0
	S28.7,71.1,28.6,71.3z M30.6,73.2c-0.4-0.1-0.7-0.3-0.7-0.6c0-0.3,0.4-0.5,0.8-0.4c0.4,0.1,0.7,0.3,0.7,0.6
	C31.4,73.1,31,73.2,30.6,73.2z M33.9,73.7c-0.5,0-0.8-0.3-0.8-0.6c0-0.3,0.4-0.5,0.9-0.5s0.8,0.3,0.8,0.6
	C34.8,73.5,34.4,73.7,33.9,73.7z M37,73.4c-0.5,0-0.9-0.3-0.9-0.6s0.4-0.6,0.9-0.6s0.9,0.3,0.9,0.6S37.5,73.4,37,73.4z"/>
</svg>
